<svg xmlns="http://www.w3.org/2000/svg" height="512pt" version="1.1" viewBox="0 -40 512.00021 512" width="512pt">
<g id="surface1">
<path d="M 501.480469 168.554688 L 456.964844 420.964844 L 55.667969 420.964844 L 10.621094 168.554688 Z M 501.480469 168.554688 " style=" stroke:none;fill-rule:nonzero;fill:rgb(0%,67.45098%,91.764706%);fill-opacity:1;" />
<path d="M 462.675781 56.253906 L 462.675781 168.554688 L 422.070312 168.554688 L 422.070312 98.339844 L 90.035156 98.339844 L 90.035156 168.554688 L 53.660156 168.554688 L 47.632812 10.363281 L 209.632812 10.363281 L 256.792969 56.253906 Z M 462.675781 56.253906 " style=" stroke:none;fill-rule:nonzero;fill:rgb(0%,93.72549%,81.960784%);fill-opacity:1;" />
<path d="M 422.070312 168.132812 L 422.070312 168.554688 L 90.035156 168.554688 L 90.035156 98.339844 L 422.070312 98.339844 Z M 422.070312 168.132812 " style=" stroke:none;fill-rule:nonzero;fill:rgb(99.607843%,85.882353%,25.490196%);fill-opacity:1;" />
<path d="M 501.480469 157.558594 L 472.824219 157.558594 L 472.824219 56.253906 C 472.824219 50.441406 468.492188 45.46875 462.675781 45.46875 L 261.128906 45.46875 L 217.035156 2.855469 C 215.023438 0.953125 212.378906 0 209.632812 0 L 47.632812 0 C 44.777344 0 42.027344 1.058594 40.019531 3.171875 C 38.011719 5.289062 36.953125 7.824219 37.058594 10.679688 L 42.664062 157.558594 L 10.621094 157.558594 C 7.449219 157.558594 4.488281 159.144531 2.480469 161.574219 C 0.472656 164.007812 -0.375 167.285156 0.152344 170.351562 L 45.199219 422.867188 C 46.152344 427.941406 50.488281 431.539062 55.5625 431.539062 L 456.964844 431.539062 C 462.148438 431.539062 466.480469 427.945312 467.328125 422.867188 L 511.847656 170.351562 C 512.375 167.285156 511.527344 163.902344 509.519531 161.574219 C 507.507812 159.144531 504.550781 157.558594 501.480469 157.558594 Z M 58.628906 21.148438 L 205.402344 21.148438 L 249.496094 63.761719 C 251.503906 65.667969 254.148438 66.617188 256.898438 66.617188 L 451.675781 66.617188 L 451.675781 157.558594 L 432.644531 157.558594 L 432.644531 98.339844 C 432.644531 92.527344 427.886719 87.765625 422.070312 87.765625 L 90.035156 87.765625 C 84.21875 87.765625 79.460938 92.523438 79.460938 98.339844 L 79.460938 157.558594 L 63.917969 157.558594 Z M 411.496094 157.558594 L 100.609375 157.558594 L 100.609375 108.914062 L 411.496094 108.914062 Z M 448.082031 410.285156 L 64.550781 410.285156 L 23.3125 178.707031 L 488.898438 178.707031 Z M 448.082031 410.285156 " style=" stroke:none;fill-rule:nonzero;fill:rgb(3.137255%,21.960784%,38.823529%);fill-opacity:1;" />
<path d="M 252.878906 229.25 C 253.515625 229.355469 254.253906 229.464844 254.996094 229.464844 C 255.945312 229.464844 256.792969 229.355469 257.636719 229.144531 C 271.808594 229.992188 283.121094 241.835938 283.121094 256.214844 C 283.121094 262.03125 287.878906 266.789062 293.695312 266.789062 C 299.511719 266.789062 304.273438 262.03125 304.273438 256.214844 C 304.273438 232.847656 287.5625 213.390625 265.570312 208.949219 L 265.570312 201.96875 C 265.570312 196.15625 260.8125 191.394531 254.996094 191.394531 C 249.179688 191.394531 244.421875 196.152344 244.421875 201.96875 L 244.421875 209.371094 C 223.273438 214.554688 207.832031 233.480469 207.832031 256.21875 C 207.832031 282.863281 229.511719 304.4375 256.050781 304.4375 C 270.960938 304.4375 283.121094 316.597656 283.121094 331.507812 C 283.121094 346.414062 270.960938 358.578125 256.050781 358.578125 C 241.140625 358.578125 228.980469 346.414062 228.980469 331.507812 C 228.980469 325.691406 224.222656 320.929688 218.40625 320.929688 C 212.589844 320.929688 207.832031 325.691406 207.832031 331.507812 C 207.832031 354.136719 223.484375 373.0625 244.417969 378.351562 L 244.417969 389.136719 C 244.417969 394.953125 249.179688 399.710938 254.996094 399.710938 C 260.808594 399.710938 265.570312 394.953125 265.570312 389.136719 L 265.570312 378.773438 C 287.667969 374.332031 304.269531 354.875 304.269531 331.507812 C 304.269531 304.859375 282.59375 283.289062 256.050781 283.289062 C 241.140625 283.289062 228.980469 271.125 228.980469 256.21875 C 228.984375 242.152344 239.238281 230.835938 252.878906 229.25 Z M 252.878906 229.25 " style=" stroke:none;fill-rule:nonzero;fill:rgb(3.137255%,21.960784%,38.823529%);fill-opacity:1;" />
</g>
</svg>